ffmpeg started on 2016-12-08 at 01:14:14
Report written to "Output/x264/results/ffmpeg/sintelslower5000k.log"
Command line:
Tools/ffmpeg/ffmpeg -benchmark -y -i Input/y4m/sintel.y4m -c:v libx264 -preset slower -b:v 5000k -an Output/x264/encoded/sintelslower5000k.mkv
ffmpeg version N-82227-gdb23fde Copyright (c) 2000-2016 the FFmpeg developers
  built with gcc 5.4.0 (Ubuntu 5.4.0-6ubuntu1~16.04.2) 20160609
  configuration: --prefix=/home/jaroslav/ffmpeg_build --pkg-config-flags=--static --extra-cflags=-I/home/jaroslav/ffmpeg_build/include --extra-ldflags=-L/home/jaroslav/ffmpeg_build/lib --bindir=/home/jaroslav/bin --enable-gpl --enable-libass --enable-libfdk-aac --enable-libfreetype --enable-libmp3lame --enable-libopus --enable-libtheora --enable-libvorbis --enable-libvpx --enable-libx264 --enable-libx265 --enable-nvenc --enable-libmfx --enable-libxvid --enable-libgsm --enable-libopencore-amrnb --enable-version3 --enable-nonfree
  libavutil      55. 35.100 / 55. 35.100
  libavcodec     57. 66.101 / 57. 66.101
  libavformat    57. 57.100 / 57. 57.100
  libavdevice    57.  2.100 / 57.  2.100
  libavfilter     6. 66.100 /  6. 66.100
  libswscale      4.  3.100 /  4.  3.100
  libswresample   2.  4.100 /  2.  4.100
  libpostproc    54.  2.100 / 54.  2.100
Input #0, yuv4mpegpipe, from 'Input/y4m/sintel.y4m':
  Duration: 00:00:20.83, start: 0.000000, bitrate: 2057307 kb/s
    Stream #0:0: Video: rawvideo (I420 / 0x30323449), yuv420p(progressive), 4096x1744, SAR 1:1 DAR 256:109, 24 fps, 24 tbr, 24 tbn, 24 tbc
[libx264 @ 0x43751c0] using SAR=1/1
[libx264 @ 0x43751c0] DPB size (8 frames, 223232 mbs) > level limit (6 frames, 184320 mbs)
[libx264 @ 0x43751c0] using cpu capabilities: MMX2 SSE2Fast SSSE3 SSE4.2 AVX FMA3 AVX2 LZCNT BMI2
[libx264 @ 0x43751c0] profile High, level 5.2
[libx264 @ 0x43751c0] 264 - core 148 - H.264/MPEG-4 AVC codec - Copyleft 2003-2016 - http://www.videolan.org/x264.html - options: cabac=1 ref=8 deblock=1:0:0 analyse=0x3:0x133 me=umh subme=9 psy=1 psy_rd=1.00:0.00 mixed_ref=1 me_range=16 chroma_me=1 trellis=2 8x8dct=1 cqm=0 deadzone=21,11 fast_pskip=1 chroma_qp_offset=-2 threads=6 lookahead_threads=1 sliced_threads=0 nr=0 decimate=1 interlaced=0 bluray_compat=0 constrained_intra=0 bframes=3 b_pyramid=2 b_adapt=2 b_bias=0 direct=3 weightb=1 open_gop=0 weightp=2 keyint=250 keyint_min=24 scenecut=40 intra_refresh=0 rc_lookahead=60 rc=abr mbtree=1 bitrate=5000 ratetol=1.0 qcomp=0.60 qpmin=0 qpmax=69 qpstep=4 ip_ratio=1.40 aq=1:1.00
Output #0, matroska, to 'Output/x264/encoded/sintelslower5000k.mkv':
  Metadata:
    encoder         : Lavf57.57.100
    Stream #0:0: Video: h264 (libx264) (H264 / 0x34363248), yuv420p, 4096x1744 [SAR 1:1 DAR 256:109], q=-1--1, 5000 kb/s, 24 fps, 1k tbn, 24 tbc
    Metadata:
      encoder         : Lavc57.66.101 libx264
    Side data:
      cpb: bitrate max/min/avg: 0/0/5000000 buffer size: 0 vbv_delay: -1
Stream mapping:
  Stream #0:0 -> #0:0 (rawvideo (native) -> h264 (libx264))
Press [q] to stop, [?] for help
frame=   10 fps=0.0 q=0.0 size=       0kB time=00:00:00.00 bitrate=N/A speed=   0x    frame=   21 fps= 20 q=0.0 size=       0kB time=00:00:00.00 bitrate=N/A speed=   0x    frame=   32 fps= 21 q=0.0 size=       0kB time=00:00:00.00 bitrate=N/A speed=   0x    frame=   40 fps= 19 q=0.0 size=       0kB time=00:00:00.00 bitrate=N/A speed=   0x    frame=   52 fps= 20 q=0.0 size=       0kB time=00:00:00.00 bitrate=N/A speed=   0x    frame=   64 fps= 20 q=0.0 size=       0kB time=00:00:00.00 bitrate=N/A speed=   0x    frame=   67 fps=6.8 q=0.0 size=       0kB time=00:00:00.00 bitrate=N/A speed=   0x    frame=   68 fps=5.6 q=0.0 size=       0kB time=00:00:00.00 bitrate=N/A speed=   0x    frame=   73 fps=5.4 q=39.0 size=       1kB time=00:00:00.00 bitrate=5888.0kbits/s speed=7.38e-05x    frame=   75 fps=5.2 q=37.0 size=       1kB time=00:00:00.08 bitrate=  70.1kbits/s speed=0.00584x    frame=   77 fps=4.9 q=43.0 size=       1kB time=00:00:00.16 bitrate=  35.0kbits/s speed=0.0106x    frame=   78 fps=4.7 q=49.0 size=       1kB time=00:00:00.20 bitrate=  28.2kbits/s speed=0.0127x    frame=   81 fps=4.7 q=49.0 size=       1kB time=00:00:00.33 bitrate=  17.6kbits/s speed=0.0195x    frame=   84 fps=4.6 q=48.0 size=       1kB time=00:00:00.45 bitrate=  12.8kbits/s speed=0.0251x    frame=   85 fps=4.5 q=48.0 size=       1kB time=00:00:00.50 bitrate=  11.8kbits/s speed=0.0264x    frame=   86 fps=4.4 q=49.0 size=       1kB time=00:00:00.54 bitrate=  10.8kbits/s speed=0.0278x    frame=   89 fps=4.4 q=48.0 size=       1kB time=00:00:00.66 bitrate=   8.8kbits/s speed=0.0332x    frame=   91 fps=4.4 q=48.0 size=       1kB time=00:00:00.75 bitrate=   7.8kbits/s speed=0.036x    frame=   92 fps=4.2 q=48.0 size=       1kB time=00:00:00.79 bitrate=   7.4kbits/s speed=0.0361x    frame=   94 fps=4.1 q=48.0 size=       1kB time=00:00:00.87 bitrate=   6.7kbits/s speed=0.0386x    frame=   96 fps=4.1 q=48.0 size=       1kB time=00:00:00.95 bitrate=   6.1kbits/s speed=0.0413x    frame=   98 fps=4.0 q=48.0 size=       1kB time=00:00:01.04 bitrate=   5.6kbits/s speed=0.0426x    frame=  101 fps=4.0 q=48.0 size=       1kB time=00:00:01.16 bitrate=   5.0kbits/s speed=0.0464x    frame=  103 fps=4.0 q=47.0 size=       1kB time=00:00:01.25 bitrate=   4.7kbits/s speed=0.0487x    frame=  104 fps=3.9 q=47.0 size=       1kB time=00:00:01.29 bitrate=   4.6kbits/s speed=0.0487x    frame=  106 fps=3.9 q=47.0 size=       1kB time=00:00:01.37 bitrate=   4.3kbits/s speed=0.0505x    frame=  107 fps=3.8 q=47.0 size=       1kB time=00:00:01.41 bitrate=   4.2kbits/s speed=0.0507x    frame=  109 fps=3.8 q=47.0 size=       1kB time=00:00:01.50 bitrate=   3.9kbits/s speed=0.0521x    frame=  111 fps=3.8 q=47.0 size=       1kB time=00:00:01.58 bitrate=   3.7kbits/s speed=0.0538x    frame=  113 fps=3.8 q=47.0 size=       1kB time=00:00:01.66 bitrate=   3.5kbits/s speed=0.0557x    frame=  115 fps=3.8 q=46.0 size=       1kB time=00:00:01.75 bitrate=   3.4kbits/s speed=0.0572x    frame=  117 fps=3.7 q=46.0 size=       1kB time=00:00:01.83 bitrate=   3.2kbits/s speed=0.0584x    frame=  119 fps=3.7 q=46.0 size=       1kB time=00:00:01.91 bitrate=   3.1kbits/s speed=0.06x    frame=  122 fps=3.7 q=46.0 size=       1kB time=00:00:02.04 bitrate=   2.9kbits/s speed=0.0623x    frame=  123 fps=3.6 q=46.0 size=       1kB time=00:00:02.08 bitrate=   2.8kbits/s speed=0.0618x    frame=  124 fps=3.6 q=46.0 size=       1kB time=00:00:02.12 bitrate=   2.8kbits/s speed=0.062x    frame=  125 fps=3.6 q=46.0 size=       1kB time=00:00:02.16 bitrate=   2.7kbits/s speed=0.0621x    frame=  127 fps=3.6 q=46.0 size=       1kB time=00:00:02.25 bitrate=   2.6kbits/s speed=0.0633x    frame=  129 fps=3.5 q=46.0 size=       1kB time=00:00:02.33 bitrate=   2.5kbits/s speed=0.0638x    frame=  130 fps=3.5 q=46.0 size=       1kB time=00:00:02.37 bitrate=   2.5kbits/s speed=0.0639x    frame=  132 fps=3.5 q=46.0 size=       1kB time=00:00:02.45 bitrate=   2.4kbits/s speed=0.0646x    frame=  134 fps=3.4 q=46.0 size=       1kB time=00:00:02.54 bitrate=   2.3kbits/s speed=0.0653x    frame=  136 fps=3.4 q=46.0 size=       1kB time=00:00:02.62 bitrate=   2.2kbits/s speed=0.0662x    frame=  137 fps=3.3 q=46.0 size=       1kB time=00:00:02.66 bitrate=   2.2kbits/s speed=0.0651x    frame=  139 fps=3.3 q=46.0 size=       1kB time=00:00:02.75 bitrate=   2.1kbits/s speed=0.0656x    frame=  141 fps=3.3 q=46.0 size=       1kB time=00:00:02.83 bitrate=   2.1kbits/s speed=0.0667x    frame=  143 fps=3.3 q=46.0 size=       1kB time=00:00:02.91 bitrate=   2.0kbits/s speed=0.0666x    frame=  144 fps=3.2 q=46.0 size=       1kB time=00:00:02.95 bitrate=   2.0kbits/s speed=0.0666x    frame=  146 fps=3.2 q=46.0 size=       1kB time=00:00:03.04 bitrate=   1.9kbits/s speed=0.0673x    frame=  148 fps=3.2 q=45.0 size=       1kB time=00:00:03.12 bitrate=   1.9kbits/s speed=0.068x    frame=  149 fps=3.2 q=45.0 size=       1kB time=00:00:03.16 bitrate=   1.9kbits/s speed=0.068x    frame=  150 fps=3.2 q=45.0 size=       1kB time=00:00:03.20 bitrate=   1.8kbits/s speed=0.0676x    frame=  152 fps=3.1 q=45.0 size=       1kB time=00:00:03.29 bitrate=   1.8kbits/s speed=0.068x    frame=  154 fps=3.1 q=45.0 size=       1kB time=00:00:03.37 bitrate=   1.7kbits/s speed=0.0682x    frame=  156 fps=3.1 q=45.0 size=       1kB time=00:00:03.45 bitrate=   1.7kbits/s speed=0.0684x    frame=  157 fps=3.1 q=45.0 size=       1kB time=00:00:03.50 bitrate=   1.7kbits/s speed=0.0685x    frame=  159 fps=3.1 q=45.0 size=       1kB time=00:00:03.58 bitrate=   1.6kbits/s speed=0.0691x    frame=  160 fps=3.0 q=45.0 size=       1kB time=00:00:03.62 bitrate=   1.6kbits/s speed=0.0688x    frame=  162 fps=3.0 q=45.0 size=       1kB time=00:00:03.70 bitrate=   1.6kbits/s speed=0.0693x    frame=  164 fps=3.0 q=45.0 size=       1kB time=00:00:03.79 bitrate=   1.6kbits/s speed=0.07x    frame=  166 fps=3.0 q=45.0 size=       1kB time=00:00:03.87 bitrate=   1.5kbits/s speed=0.0704x    frame=  167 fps=3.0 q=45.0 size=       1kB time=00:00:03.91 bitrate=   1.5kbits/s speed=0.07x    frame=  170 fps=3.0 q=45.0 size=       1kB time=00:00:04.04 bitrate=   1.5kbits/s speed=0.0715x    frame=  172 fps=3.0 q=45.0 size=       1kB time=00:00:04.12 bitrate=   1.4kbits/s speed=0.0721x    frame=  173 fps=3.0 q=45.0 size=       1kB time=00:00:04.16 bitrate=   1.4kbits/s speed=0.0712x    frame=  177 fps=3.0 q=45.0 size=       1kB time=00:00:04.33 bitrate=   1.4kbits/s speed=0.0731x    frame=  179 fps=3.0 q=44.0 size=       1kB time=00:00:04.41 bitrate=   1.3kbits/s speed=0.0734x    frame=  181 fps=3.0 q=42.0 size=       1kB time=00:00:04.50 bitrate=   1.3kbits/s speed=0.0741x    frame=  182 fps=3.0 q=44.0 size=       1kB time=00:00:04.54 bitrate=   1.3kbits/s speed=0.074x    frame=  184 fps=3.0 q=44.0 size=       1kB time=00:00:04.62 bitrate=   1.3kbits/s speed=0.0746x    frame=  190 fps=3.0 q=44.0 size=    3138kB time=00:00:04.87 bitrate=5271.4kbits/s speed=0.0779x    frame=  191 fps=3.0 q=44.0 size=    3138kB time=00:00:04.91 bitrate=5226.3kbits/s speed=0.0778x    frame=  193 fps=3.0 q=44.0 size=    3138kB time=00:00:05.00 bitrate=5139.6kbits/s speed=0.0783x    frame=  195 fps=3.0 q=44.0 size=    3138kB time=00:00:05.08 bitrate=5055.7kbits/s speed=0.0788x    frame=  197 fps=3.0 q=44.0 size=    3138kB time=00:00:05.16 bitrate=4973.5kbits/s speed=0.0787x    frame=  199 fps=3.0 q=44.0 size=    3138kB time=00:00:05.25 bitrate=4894.9kbits/s speed=0.079x    frame=  201 fps=3.0 q=44.0 size=    3138kB time=00:00:05.33 bitrate=4818.7kbits/s speed=0.0792x    frame=  203 fps=3.0 q=44.0 size=    3138kB time=00:00:05.41 bitrate=4744.0kbits/s speed=0.0798x    frame=  205 fps=3.0 q=44.0 size=    3138kB time=00:00:05.50 bitrate=4672.4kbits/s speed=0.0802x    frame=  207 fps=3.0 q=44.0 size=    3138kB time=00:00:05.58 bitrate=4603.0kbits/s speed=0.0804x    frame=  210 fps=3.0 q=44.0 size=    3138kB time=00:00:05.70 bitrate=4502.2kbits/s speed=0.0812x    frame=  213 fps=3.0 q=44.0 size=    3138kB time=00:00:05.83 bitrate=4405.7kbits/s speed=0.082x    frame=  214 fps=3.0 q=44.0 size=    3138kB time=00:00:05.87 bitrate=4374.3kbits/s speed=0.082x    frame=  216 fps=3.0 q=44.0 size=    3138kB time=00:00:05.95 bitrate=4313.3kbits/s speed=0.0823x    frame=  218 fps=3.0 q=44.0 size=    3138kB time=00:00:06.04 bitrate=4253.4kbits/s speed=0.0828x    frame=  220 fps=3.0 q=44.0 size=    3138kB time=00:00:06.12 bitrate=4195.7kbits/s speed=0.0833x    frame=  221 fps=3.0 q=44.0 size=    3138kB time=00:00:06.16 bitrate=4167.2kbits/s speed=0.0833x    frame=  223 fps=3.0 q=44.0 size=    3138kB time=00:00:06.25 bitrate=4111.8kbits/s speed=0.0837x    frame=  226 fps=3.0 q=44.0 size=    3138kB time=00:00:06.37 bitrate=4031.2kbits/s speed=0.0847x    frame=  228 fps=3.0 q=44.0 size=    3138kB time=00:00:06.45 bitrate=3979.4kbits/s speed=0.0838x    frame=  231 fps=3.0 q=44.0 size=    3138kB time=00:00:06.58 bitrate=3903.9kbits/s speed=0.0847x    frame=  233 fps=3.0 q=44.0 size=    3138kB time=00:00:06.66 bitrate=3854.7kbits/s speed=0.0852x    frame=  234 fps=2.9 q=44.0 size=    3138kB time=00:00:06.70 bitrate=3831.1kbits/s speed=0.0845x    frame=  236 fps=2.9 q=44.0 size=    3138kB time=00:00:06.79 bitrate=3783.8kbits/s speed=0.0849x    frame=  238 fps=2.9 q=44.0 size=    3138kB time=00:00:06.87 bitrate=3738.1kbits/s speed=0.0851x    frame=  240 fps=2.9 q=44.0 size=    3138kB time=00:00:06.95 bitrate=3693.5kbits/s speed=0.0854x    frame=  242 fps=2.9 q=44.0 size=    3138kB time=00:00:07.04 bitrate=3649.5kbits/s speed=0.085x    frame=  245 fps=2.9 q=44.0 size=    3138kB time=00:00:07.16 bitrate=3585.8kbits/s speed=0.0855x    frame=  247 fps=2.9 q=44.0 size=    3138kB time=00:00:07.25 bitrate=3544.8kbits/s speed=0.0857x    frame=  248 fps=2.9 q=44.0 size=    3138kB time=00:00:07.29 bitrate=3524.4kbits/s speed=0.0855x    frame=  250 fps=2.9 q=44.0 size=    3138kB time=00:00:07.37 bitrate=3484.7kbits/s speed=0.0854x    frame=  253 fps=2.9 q=44.0 size=    3138kB time=00:00:07.50 bitrate=3426.6kbits/s speed=0.0862x    frame=  259 fps=3.0 q=43.0 size=    4691kB time=00:00:07.75 bitrate=4958.1kbits/s speed=0.0885x    frame=  262 fps=3.0 q=43.0 size=    4691kB time=00:00:07.87 bitrate=4879.4kbits/s speed=0.089x    frame=  265 fps=3.0 q=43.0 size=    4691kB time=00:00:08.00 bitrate=4803.2kbits/s speed=0.0896x    frame=  267 fps=3.0 q=43.0 size=    4691kB time=00:00:08.08 bitrate=4753.8kbits/s speed=0.0897x    frame=  269 fps=3.0 q=43.0 size=    4691kB time=00:00:08.16 bitrate=4705.0kbits/s speed=0.0898x    frame=  271 fps=3.0 q=43.0 size=    4691kB time=00:00:08.25 bitrate=4657.6kbits/s speed=0.0901x    frame=  272 fps=2.9 q=43.0 size=    4691kB time=00:00:08.29 bitrate=4634.0kbits/s speed=0.0899x    frame=  273 fps=2.9 q=43.0 size=    4691kB time=00:00:08.33 bitrate=4611.2kbits/s speed=0.0898x    frame=  277 fps=3.0 q=43.0 size=    4691kB time=00:00:08.50 bitrate=4520.7kbits/s speed=0.0909x    frame=  279 fps=2.9 q=43.0 size=    4691kB time=00:00:08.58 bitrate=4476.9kbits/s speed=0.0905x    frame=  284 fps=3.0 q=43.0 size=    4691kB time=00:00:08.79 bitrate=4370.5kbits/s speed=0.0919x    frame=  286 fps=3.0 q=43.0 size=    4691kB time=00:00:08.87 bitrate=4329.7kbits/s speed=0.0923x    frame=  287 fps=3.0 q=43.0 size=    4691kB time=00:00:08.91 bitrate=4309.3kbits/s speed=0.0917x    frame=  290 fps=3.0 q=43.0 size=    4691kB time=00:00:09.04 bitrate=4249.7kbits/s speed=0.0925x    frame=  293 fps=3.0 q=43.0 size=    4691kB time=00:00:09.16 bitrate=4191.8kbits/s speed=0.0928x    frame=  294 fps=3.0 q=43.0 size=    4691kB time=00:00:09.20 bitrate=4173.1kbits/s speed=0.0926x    frame=  300 fps=3.0 q=42.0 size=    4691kB time=00:00:09.45 bitrate=4062.8kbits/s speed=0.0939x    frame=  301 fps=3.0 q=42.0 size=    4691kB time=00:00:09.50 bitrate=4044.8kbits/s speed=0.0938x    frame=  306 fps=3.0 q=42.0 size=    4691kB time=00:00:09.70 bitrate=3958.2kbits/s speed=0.0954x    frame=  307 fps=3.0 q=42.0 size=    4691kB time=00:00:09.75 bitrate=3941.1kbits/s speed=0.0951x    frame=  310 fps=3.0 q=42.0 size=    4691kB time=00:00:09.87 bitrate=3891.3kbits/s speed=0.0957x    frame=  311 fps=3.0 q=42.0 size=    4691kB time=00:00:09.91 bitrate=3874.8kbits/s speed=0.0954x    frame=  317 fps=3.0 q=42.0 size=    4691kB time=00:00:10.16 bitrate=3779.5kbits/s speed=0.0969x    frame=  319 fps=3.0 q=42.0 size=    4691kB time=00:00:10.25 bitrate=3748.9kbits/s speed=0.0972x    frame=  320 fps=3.0 q=42.0 size=    4691kB time=00:00:10.29 bitrate=3733.6kbits/s speed=0.0969x    frame=  322 fps=3.0 q=42.0 size=    4691kB time=00:00:10.37 bitrate=3703.7kbits/s speed=0.0972x    frame=  326 fps=3.0 q=41.0 size=    4691kB time=00:00:10.54 bitrate=3645.1kbits/s speed=0.0981x    frame=  329 fps=3.0 q=41.0 size=    4691kB time=00:00:10.66 bitrate=3602.4kbits/s speed=0.0986x    frame=  332 fps=3.0 q=41.0 size=    4691kB time=00:00:10.79 bitrate=3560.6kbits/s speed=0.0989x    frame=  337 fps=3.1 q=41.0 size=    6138kB time=00:00:11.00 bitrate=4570.5kbits/s speed= 0.1x    frame=  340 fps=3.1 q=41.0 size=    6138kB time=00:00:11.12 bitrate=4519.1kbits/s speed=0.101x    frame=  344 fps=3.1 q=41.0 size=    6138kB time=00:00:11.29 bitrate=4452.3kbits/s speed=0.102x    frame=  346 fps=3.1 q=41.0 size=    6138kB time=00:00:11.37 bitrate=4419.8kbits/s speed=0.102x    frame=  349 fps=3.1 q=41.0 size=    6138kB time=00:00:11.50 bitrate=4371.8kbits/s speed=0.102x    frame=  352 fps=3.1 q=41.0 size=    6138kB time=00:00:11.62 bitrate=4324.7kbits/s speed=0.103x    frame=  355 fps=3.1 q=41.0 size=    6138kB time=00:00:11.75 bitrate=4278.7kbits/s speed=0.103x    frame=  356 fps=3.1 q=41.0 size=    6138kB time=00:00:11.79 bitrate=4263.5kbits/s speed=0.102x    frame=  360 fps=3.1 q=40.0 size=    6138kB time=00:00:11.95 bitrate=4204.3kbits/s speed=0.103x    frame=  362 fps=3.1 q=40.0 size=    6138kB time=00:00:12.04 bitrate=4175.0kbits/s speed=0.103x    frame=  364 fps=3.1 q=40.0 size=    6138kB time=00:00:12.12 bitrate=4146.4kbits/s speed=0.103x    frame=  368 fps=3.1 q=40.0 size=    6138kB time=00:00:12.29 bitrate=4090.1kbits/s speed=0.104x    frame=  370 fps=3.1 q=40.0 size=    6138kB time=00:00:12.37 bitrate=4062.7kbits/s speed=0.104x    frame=  375 fps=3.1 q=40.0 size=    6138kB time=00:00:12.58 bitrate=3995.5kbits/s speed=0.105x    frame=  377 fps=3.1 q=40.0 size=    6138kB time=00:00:12.66 bitrate=3969.0kbits/s speed=0.106x    frame=  378 fps=3.1 q=40.0 size=    6138kB time=00:00:12.70 bitrate=3956.2kbits/s speed=0.105x    frame=  384 fps=3.2 q=39.0 size=    6138kB time=00:00:12.95 bitrate=3879.9kbits/s speed=0.107x    frame=  386 fps=3.2 q=39.0 size=    6138kB time=00:00:13.04 bitrate=3854.9kbits/s speed=0.107x    frame=  391 fps=3.2 q=39.0 size=    6138kB time=00:00:13.25 bitrate=3794.4kbits/s speed=0.108x    frame=  393 fps=3.2 q=39.0 size=    6138kB time=00:00:13.33 bitrate=3770.8kbits/s speed=0.108x    frame=  396 fps=3.2 q=39.0 size=    6138kB time=00:00:13.45 bitrate=3735.8kbits/s speed=0.109x    frame=  401 fps=3.2 q=38.0 size=    6138kB time=00:00:13.66 bitrate=3678.6kbits/s speed=0.11x    frame=  403 fps=3.2 q=39.0 size=    6138kB time=00:00:13.75 bitrate=3656.4kbits/s speed=0.11x    frame=  407 fps=3.2 q=38.0 size=    6138kB time=00:00:13.91 bitrate=3612.6kbits/s speed=0.111x    frame=  410 fps=3.2 q=38.0 size=    6138kB time=00:00:14.04 bitrate=3580.4kbits/s speed=0.111x    frame=  412 fps=3.2 q=38.0 size=    6138kB time=00:00:14.12 bitrate=3559.4kbits/s speed=0.111x    frame=  416 fps=3.3 q=38.0 size=    6138kB time=00:00:14.29 bitrate=3517.8kbits/s speed=0.112x    frame=  420 fps=3.3 q=38.0 size=    6138kB time=00:00:14.45 bitrate=3477.4kbits/s speed=0.113x    frame=  425 fps=3.3 q=37.0 size=    6138kB time=00:00:14.66 bitrate=3427.8kbits/s speed=0.114x    frame=  427 fps=3.3 q=37.0 size=    6138kB time=00:00:14.75 bitrate=3408.6kbits/s speed=0.114x    frame=  431 fps=3.3 q=37.0 size=    6138kB time=00:00:14.91 bitrate=3370.4kbits/s speed=0.115x    frame=  435 fps=3.3 q=37.0 size=    7502kB time=00:00:15.08 bitrate=4074.2kbits/s speed=0.116x    frame=  439 fps=3.3 q=37.0 size=    7502kB time=00:00:15.25 bitrate=4029.6kbits/s speed=0.116x    frame=  441 fps=3.3 q=37.0 size=    7502kB time=00:00:15.33 bitrate=4007.8kbits/s speed=0.116x    frame=  444 fps=3.3 q=37.0 size=    7502kB time=00:00:15.45 bitrate=3975.4kbits/s speed=0.117x    frame=  446 fps=3.4 q=37.0 size=    7502kB time=00:00:15.54 bitrate=3953.9kbits/s speed=0.117x    frame=  448 fps=3.4 q=37.0 size=    7502kB time=00:00:15.62 bitrate=3932.9kbits/s speed=0.117x    frame=  450 fps=3.3 q=37.0 size=    7502kB time=00:00:15.70 bitrate=3912.1kbits/s speed=0.117x    frame=  455 fps=3.4 q=37.0 size=    7502kB time=00:00:15.91 bitrate=3860.7kbits/s speed=0.118x    frame=  457 fps=3.4 q=37.0 size=    7502kB time=00:00:16.00 bitrate=3840.7kbits/s speed=0.118x    frame=  459 fps=3.4 q=36.0 size=    7502kB time=00:00:16.08 bitrate=3820.9kbits/s speed=0.118x    frame=  462 fps=3.4 q=36.0 size=    7502kB time=00:00:16.20 bitrate=3791.4kbits/s speed=0.118x    frame=  464 fps=3.4 q=36.0 size=    7502kB time=00:00:16.29 bitrate=3771.9kbits/s speed=0.118x    frame=  466 fps=3.4 q=36.0 size=    7502kB time=00:00:16.37 bitrate=3752.8kbits/s speed=0.118x    frame=  468 fps=3.4 q=36.0 size=    7502kB time=00:00:16.45 bitrate=3733.8kbits/s speed=0.118x    frame=  471 fps=3.3 q=37.0 size=    7502kB time=00:00:16.58 bitrate=3705.7kbits/s speed=0.118x    frame=  477 fps=3.3 q=37.0 size=    7502kB time=00:00:16.83 bitrate=3650.7kbits/s speed=0.118x    frame=  481 fps=3.4 q=37.0 size=    7502kB time=00:00:17.00 bitrate=3614.8kbits/s speed=0.119x    frame=  484 fps=3.4 q=34.0 size=    7502kB time=00:00:17.12 bitrate=3588.4kbits/s speed=0.119x    frame=  486 fps=3.4 q=37.0 size=    7502kB time=00:00:17.20 bitrate=3571.1kbits/s speed=0.119x    frame=  494 fps=3.4 q=37.0 size=    8769kB time=00:00:17.54 bitrate=4094.9kbits/s speed=0.12x    frame=  498 fps=3.4 q=37.0 size=    8769kB time=00:00:17.70 bitrate=4056.5kbits/s speed=0.121x    frame=  500 fps=3.4 q=37.0 size=    8769kB time=00:00:17.79 bitrate=4037.3kbits/s speed=0.121x    frame=  500 fps=3.1 q=-1.0 Lsize=   10521kB time=00:00:20.70 bitrate=4161.7kbits/s speed=0.128x    
video:10516kB audio:0kB subtitle:0kB other streams:0kB global headers:0kB muxing overhead: 0.044241%
bench: utime=581.864s
bench: maxrss=2150524kB
[libx264 @ 0x43751c0] frame I:6     Avg QP:30.96  size: 94546
[libx264 @ 0x43751c0] frame P:273   Avg QP:37.52  size: 27038
[libx264 @ 0x43751c0] frame B:221   Avg QP:36.91  size: 12755
[libx264 @ 0x43751c0] consecutive B-frames: 35.2% 11.6% 18.0% 35.2%
[libx264 @ 0x43751c0] mb I  I16..4: 28.0% 70.3%  1.7%
[libx264 @ 0x43751c0] mb P  I16..4: 11.8% 33.0%  0.1%  P16..4: 14.6%  0.6%  0.6%  0.0%  0.0%    skip:39.4%
[libx264 @ 0x43751c0] mb B  I16..4:  0.8%  1.2%  0.0%  B16..8: 26.4%  1.1%  0.1%  direct: 0.3%  skip:70.0%  L0:38.8% L1:60.4% BI: 0.8%
[libx264 @ 0x43751c0] final ratefactor: 34.32
[libx264 @ 0x43751c0] 8x8 transform intra:72.9% inter:90.2%
[libx264 @ 0x43751c0] direct mvs  spatial:99.1% temporal:0.9%
[libx264 @ 0x43751c0] coded y,uvDC,uvAC intra: 9.7% 16.5% 0.3% inter: 1.8% 1.7% 0.0%
[libx264 @ 0x43751c0] i16 v,h,dc,p: 22% 31%  7% 40%
[libx264 @ 0x43751c0] i8 v,h,dc,ddl,ddr,vr,hd,vl,hu: 28% 11% 52%  1%  1%  2%  2%  1%  2%
[libx264 @ 0x43751c0] i4 v,h,dc,ddl,ddr,vr,hd,vl,hu: 16% 17% 10%  7% 11% 10% 13%  6% 11%
[libx264 @ 0x43751c0] i8c dc,h,v,p: 90%  7%  3%  1%
[libx264 @ 0x43751c0] Weighted P-Frames: Y:1.1% UV:0.7%
[libx264 @ 0x43751c0] ref P L0: 61.8% 11.4% 12.8%  4.0%  2.9%  2.4%  2.5%  1.7%  0.5%  0.0%
[libx264 @ 0x43751c0] ref B L0: 87.3%  6.8%  3.0%  1.1%  0.9%  0.6%  0.3%
[libx264 @ 0x43751c0] ref B L1: 98.5%  1.5%
[libx264 @ 0x43751c0] kb/s:4134.75
